<svg xmlns="http://www.w3.org/2000/svg" width="16" height="16" viewBox="0 0 16 16">
  <g fill="none" fill-rule="evenodd">
    <rect width="16" height="16" fill="#000"/>
    <path fill="#FFF" fill-rule="nonzero" d="M14.136985,13.6331606 L11.1318814,10.5662176 C11.9457636,9.62735751 12.4466142,8.40058031 12.4466142,7.0611399 C12.4215717,4.11937824 10.0425314,1.74093264 7.06247028,1.74093264 C4.119973,1.74093264 1.74093264,4.11937824 1.74093264,7.07365803 C1.74093264,10.0029016 4.119973,12.4189016 7.07499155,12.4189016 C8.4147669,12.4189016 9.64185088,11.9181762 10.5809458,11.1044974 L13.6361344,14.133886 C13.6987407,14.221513 13.7989109,14.2590674 13.8865597,14.2590674 C13.9867298,14.2590674 14.0743787,14.221513 14.136985,14.133886 C14.2997615,14.0087047 14.2997615,13.758342 14.136985,13.6331606 Z M2.51127939,7.08247638 C2.51127939,4.57771091 4.56518708,2.51127939 7.09500021,2.51127939 C9.62481334,2.51127939 11.6912449,4.56518708 11.6912449,7.09500021 C11.6912449,9.62481334 9.62481334,11.6912449 7.09500021,11.6912449 C4.56518708,11.6912449 2.51127939,9.64986099 2.51127939,7.09500021 L2.51127939,7.08247638 Z"/>
  </g>
</svg>
